<?xml version="1.0" encoding="UTF-8"?>
<svg version="1.1" xmlns="http://www.w3.org/2000/svg" width="64" height="64">
<path d="M0 0 C1.59134766 -0.02126953 1.59134766 -0.02126953 3.21484375 -0.04296875 C6.0625 0.1875 6.0625 0.1875 9.0625 2.1875 C10.11258653 4.16166268 11.11237876 6.16332866 12.0625 8.1875 C12.7225 9.1775 13.3825 10.1675 14.0625 11.1875 C13.86454943 17.2249925 12.66116735 20.23933239 9.0625 25.1875 C8.29310319 27.41352615 8.29310319 27.41352615 8.0625 29.1875 C10.7025 29.1875 13.3425 29.1875 16.0625 29.1875 C16.0625 30.5075 16.0625 31.8275 16.0625 33.1875 C17.2690625 33.373125 17.2690625 33.373125 18.5 33.5625 C19.345625 33.76875 20.19125 33.975 21.0625 34.1875 C21.3925 34.8475 21.7225 35.5075 22.0625 36.1875 C24.08713255 36.83963292 24.08713255 36.83963292 26.0625 37.1875 C26.0625 38.1775 26.0625 39.1675 26.0625 40.1875 C27.3825 40.8475 28.7025 41.5075 30.0625 42.1875 C30.0625 44.52083333 30.0625 46.85416667 30.0625 49.1875 C31.0525 49.6825 31.0525 49.6825 32.0625 50.1875 C32.0625 51.8375 32.0625 53.4875 32.0625 55.1875 C30.0825 55.8475 28.1025 56.5075 26.0625 57.1875 C26.7225 57.8475 27.3825 58.5075 28.0625 59.1875 C27.7325 60.8375 27.4025 62.4875 27.0625 64.1875 C23.1025 64.1875 19.1425 64.1875 15.0625 64.1875 C14.31294562 61.1892825 13.65179011 58.21813487 13.0625 55.1875 C14.7125 54.1975 16.3625 53.2075 18.0625 52.1875 C17.7325 50.5375 17.4025 48.8875 17.0625 47.1875 C18.3825 46.1975 19.7025 45.2075 21.0625 44.1875 C19.4125 44.1875 17.7625 44.1875 16.0625 44.1875 C15.98 45.074375 15.8975 45.96125 15.8125 46.875 C14.96265652 50.62847537 13.72222191 52.44718046 11.0625 55.1875 C10.4025 55.1875 9.7425 55.1875 9.0625 55.1875 C9.3925 55.8475 9.7225 56.5075 10.0625 57.1875 C10.0625 59.4975 10.0625 61.8075 10.0625 64.1875 C2.8025 64.1875 -4.4575 64.1875 -11.9375 64.1875 C-10.9375 58.1875 -10.9375 58.1875 -8.9375 55.1875 C-9.535625 54.960625 -10.13375 54.73375 -10.75 54.5 C-13.56990835 52.80805499 -14.53347086 51.13596119 -15.9375 48.1875 C-15.9375 46.8675 -15.9375 45.5475 -15.9375 44.1875 C-17.5875 44.1875 -19.2375 44.1875 -20.9375 44.1875 C-19.6175 45.1775 -18.2975 46.1675 -16.9375 47.1875 C-17.4325 49.6625 -17.4325 49.6625 -17.9375 52.1875 C-16.2875 53.1775 -14.6375 54.1675 -12.9375 55.1875 C-13.52679011 58.21813487 -14.18794562 61.1892825 -14.9375 64.1875 C-18.8975 64.1875 -22.8575 64.1875 -26.9375 64.1875 C-27.2675 62.5375 -27.5975 60.8875 -27.9375 59.1875 C-27.2775 58.5275 -26.6175 57.8675 -25.9375 57.1875 C-27.9175 56.5275 -29.8975 55.8675 -31.9375 55.1875 C-32.125 52.8125 -32.125 52.8125 -31.9375 50.1875 C-30.9475 49.5275 -29.9575 48.8675 -28.9375 48.1875 C-29.2675 47.8575 -29.5975 47.5275 -29.9375 47.1875 C-29.97813832 45.52132885 -29.980221 43.85361905 -29.9375 42.1875 C-28.6175 41.5275 -27.2975 40.8675 -25.9375 40.1875 C-25.9375 39.1975 -25.9375 38.2075 -25.9375 37.1875 C-25.009375 37.0328125 -25.009375 37.0328125 -24.0625 36.875 C-21.57223516 36.31224627 -21.57223516 36.31224627 -19.9375 33.1875 C-18.6175 33.1875 -17.2975 33.1875 -15.9375 33.1875 C-15.9375 31.8675 -15.9375 30.5475 -15.9375 29.1875 C-13.2975 29.1875 -10.6575 29.1875 -7.9375 29.1875 C-9.84778022 23.67194611 -9.84778022 23.67194611 -12.6875 18.625 C-14.47832034 15.13290033 -13.88908006 12.92585025 -12.9375 9.1875 C-11.5 7 -11.5 7 -9.9375 5.1875 C-9.4115625 4.1046875 -9.4115625 4.1046875 -8.875 3 C-6.97193063 -0.67926745 -3.7398012 0.02266546 0 0 Z " fill="#050404" transform="translate(31.9375,-0.1875)"/>
<path d="M0 0 C8.58 0 17.16 0 26 0 C26.12375 4.0528125 26.12375 4.0528125 26.25 8.1875 C26.28641602 9.02949951 26.32283203 9.87149902 26.36035156 10.73901367 C26.41775669 14.63376616 26.25679753 16.5802348 24.171875 19.98828125 C20.60364559 23.29338583 17.31620904 23.21051719 12.625 23.3125 C11.50351562 23.34988281 10.38203125 23.38726562 9.2265625 23.42578125 C5.34614414 22.91371636 3.76437575 21.70908823 1 19 C-0.65285959 15.69428083 -0.1005118 12.004622 -0.0625 8.375 C-0.041875 5.61125 -0.02125 2.8475 0 0 Z " fill="#E3C5AA" transform="translate(19,31)"/>
<path d="M0 0 C1.9375 0.25 1.9375 0.25 4 1 C4.66 1.99 5.32 2.98 6 4 C5.34 4.66 4.68 5.32 4 6 C4 7.32 4 8.64 4 10 C4.66 9.34 5.32 8.68 6 8 C8 8.125 8 8.125 10 9 C11.25 11.0625 11.25 11.0625 12 13 C11.01 13.33 10.02 13.66 9 14 C9 19.94 9 25.88 9 32 C8.01 32 7.02 32 6 32 C6 26.06 6 20.12 6 14 C5.34 14 4.68 14 4 14 C3.67 20.6 3.34 27.2 3 34 C2.01 34 1.02 34 0 34 C0 24.76 0 15.52 0 6 C-0.99 5.67 -1.98 5.34 -3 5 C-1.125 1.125 -1.125 1.125 0 0 Z " fill="#000000" transform="translate(4,0)"/>
<path d="M0 0 C0.99 0 1.98 0 3 0 C3.33 5.94 3.66 11.88 4 18 C4.66 18 5.32 18 6 18 C6 12.72 6 7.44 6 2 C6.99 2 7.98 2 9 2 C9 7.28 9 12.56 9 18 C9.99 18.33 10.98 18.66 12 19 C11.34 20.32 10.68 21.64 10 23 C8.68 23 7.36 23 6 23 C5.34 22.34 4.68 21.68 4 21 C3.67 22.65 3.34 24.3 3 26 C3.99 26.33 4.98 26.66 6 27 C5.02617818 29.51570636 4.53848865 30.73944098 2.0625 31.9375 C0 32 0 32 -1.75 30.5625 C-2.1625 30.046875 -2.575 29.53125 -3 29 C-2.505 27.515 -2.505 27.515 -2 26 C-1.34 26 -0.68 26 0 26 C0 17.42 0 8.84 0 0 Z " fill="#000000" transform="translate(51,0)"/>
<path d="M0 0 C5.94 0 11.88 0 18 0 C17 7 17 7 14.25 9.4375 C9.5046729 11.71890726 9.5046729 11.71890726 6 11 C3.25 9.4375 3.25 9.4375 1 7 C0.67 4.69 0.34 2.38 0 0 Z " fill="#2D2722" transform="translate(23,41)"/>
<path d="M0 0 C1.65 0 3.3 0 5 0 C5 5.28 5 10.56 5 16 C3.68 15.34 2.36 14.68 1 14 C1.66 14.5775 2.32 15.155 3 15.75 C5 18 5 18 5 22 C3.35 21.67 1.7 21.34 0 21 C-0.0825 20.21625 -0.165 19.4325 -0.25 18.625 C-0.72806339 15.85250896 -0.72806339 15.85250896 -3.0625 14.6875 C-3.701875 14.460625 -4.34125 14.23375 -5 14 C-5.36521739 8.52173913 -5.36521739 8.52173913 -3.6875 6.125 C-2 5 -2 5 1 5 C1 4.34 1 3.68 1 3 C0.34 3 -0.32 3 -1 3 C-0.67 2.01 -0.34 1.02 0 0 Z " fill="#D6AB85" transform="translate(26,3)"/>
<path d="M0 0 C1.65 0 3.3 0 5 0 C5.45375 0.94875 5.9075 1.8975 6.375 2.875 C7.80238254 6.00313679 7.80238254 6.00313679 10 8 C10.125 11.125 10.125 11.125 10 14 C9.360625 14.226875 8.72125 14.45375 8.0625 14.6875 C5.72806339 15.85250896 5.72806339 15.85250896 5.25 18.625 C5.1675 19.40875 5.085 20.1925 5 21 C3.35 21.33 1.7 21.66 0 22 C0 18.7 0 15.4 0 12 C1.32 12 2.64 12 4 12 C4 12.66 4 13.32 4 14 C4.66 14 5.32 14 6 14 C5.34 13.01 4.68 12.02 4 11 C4 10.01 4 9.02 4 8 C2.02 8.99 2.02 8.99 0 10 C0 6.7 0 3.4 0 0 Z " fill="#D6AA85" transform="translate(33,3)"/>
<path d="M0 0 C4.62 0 9.24 0 14 0 C12 5 12 5 11 6 C5.78991597 6.42016807 5.78991597 6.42016807 3 6 C1 4.125 1 4.125 0 2 C0 1.34 0 0.68 0 0 Z " fill="#E27361" transform="translate(25,43)"/>
<path d="M0 0 C0.66 0 1.32 0 2 0 C2.66 0.99 3.32 1.98 4 3 C9.37290929 3.670718 9.37290929 3.670718 14 1.5 C14.33 1.005 14.66 0.51 15 0 C15.33 0.99 15.66 1.98 16 3 C10.84710744 6.83471074 10.84710744 6.83471074 7.4375 7.5 C4.10302582 6.8160053 2.38532808 5.38532808 0 3 C0 2.01 0 1.02 0 0 Z " fill="#251D19" transform="translate(24,45)"/>
<path d="M0 0 C-0.33 1.98 -0.66 3.96 -1 6 C-3.64 6 -6.28 6 -9 6 C-7.01260984 0.46369883 -5.82303895 -0.15323787 0 0 Z " fill="#EECB6A" transform="translate(32,56)"/>
<path d="M0 0 C1.67542976 0.28604898 3.34385343 0.61781233 5 1 C5 2.65 5 4.3 5 6 C3.02 6 1.04 6 -1 6 C-1.042721 4.33388095 -1.04063832 2.66617115 -1 1 C-0.67 0.67 -0.34 0.34 0 0 Z " fill="#EFCC6A" transform="translate(34,56)"/>
<path d="M0 0 C1.093125 0.185625 2.18625 0.37125 3.3125 0.5625 C6.93624133 1.2578068 6.93624133 1.2578068 10 0 C9.34 1.32 8.68 2.64 8 4 C6.02 4 4.04 4 2 4 C1.34 2.68 0.68 1.36 0 0 Z " fill="#241F1B" transform="translate(33,33)"/>
<path d="M0 0 C1.093125 0.185625 2.18625 0.37125 3.3125 0.5625 C6.93624133 1.2578068 6.93624133 1.2578068 10 0 C9.34 1.32 8.68 2.64 8 4 C6.02 4 4.04 4 2 4 C1.34 2.68 0.68 1.36 0 0 Z " fill="#241F1B" transform="translate(21,33)"/>
<path d="M0 0 C0 0.66 0 1.32 0 2 C-3.3 2 -6.6 2 -10 2 C-10 1.34 -10 0.68 -10 0 C-6.42355152 -1.2380014 -3.66305234 -0.74926071 0 0 Z " fill="#A1A9B3" transform="translate(37,27)"/>
<path d="M0 0 C1.32 0.33 2.64 0.66 4 1 C4 2.65 4 4.3 4 6 C2.68 6.33 1.36 6.66 0 7 C0.66 5.35 1.32 3.7 2 2 C1.34 2 0.68 2 0 2 C0 1.34 0 0.68 0 0 Z " fill="#AB9480" transform="translate(47,35)"/>
<path d="M0 0 C0.99 0 1.98 0 3 0 C3 0.66 3 1.32 3 2 C2.34 2 1.68 2 1 2 C1.66 3.32 2.32 4.64 3 6 C1.68 6 0.36 6 -1 6 C-1.042721 4.33388095 -1.04063832 2.66617115 -1 1 C-0.67 0.67 -0.34 0.34 0 0 Z " fill="#B49C87" transform="translate(14,35)"/>
<path d="M0 0 C0.66 0.99 1.32 1.98 2 3 C-2.30769231 6.07692308 -2.30769231 6.07692308 -5.8125 5.6875 C-6.534375 5.460625 -7.25625 5.23375 -8 5 C-8 4.67 -8 4.34 -8 4 C-6.865625 3.71125 -5.73125 3.4225 -4.5625 3.125 C-3.386875 2.75375 -2.21125 2.3825 -1 2 C-0.67 1.34 -0.34 0.68 0 0 Z " fill="#37201B" transform="translate(38,45)"/>
<path d="M0 0 C0.66 0 1.32 0 2 0 C2.66 1.98 3.32 3.96 4 6 C3.34 6 2.68 6 2 6 C2 5.34 2 4.68 2 4 C0.68 3.67 -0.64 3.34 -2 3 C-1.34 2.01 -0.68 1.02 0 0 Z " fill="#15110D" transform="translate(35,11)"/>
</svg>
